<svg id="Layer_1" data-name="Layer 1" xmlns="http://www.w3.org/2000/svg" viewBox="0 0 1500 500"><title>Artboard 1</title><rect x="-0.75" y="0.63" width="1501.5" height="498.74" style="fill:#5fa78e"/><path d="M260.62,244.76a76.34,76.34,0,0,0-19.74-74l-.14-.14-.07.07a38.3,38.3,0,0,1-3,56.91,76.56,76.56,0,0,1-122.52-29.7,76.52,76.52,0,1,0,145.51,46.9Z" style="fill:#3c3c3b;stroke:#5fa78e;stroke-miterlimit:10;stroke-width:5.093946313947001px"/><path d="M312.34,197.63a76.45,76.45,0,0,0-51.8-46.82A76.57,76.57,0,0,0,189.33,168a38.42,38.42,0,0,1,51.34,2.64l.07-.07.14.14a76.39,76.39,0,0,1-26.95,125.48,76.48,76.48,0,0,0,98.41-98.58Z" style="fill:#3c3c3b;stroke:#5fa78e;stroke-miterlimit:10;stroke-width:5.093946313947001px"/><path d="M186.4,224.84l-.07.07.14.14A76.4,76.4,0,0,1,214.16,99.28a76.4,76.4,0,1,0,23.47,128.28A38.41,38.41,0,0,1,186.4,224.84Z" style="fill:#3c3c3b;stroke:#5fa78e;stroke-miterlimit:10;stroke-width:5.093946313947001px"/><path d="M294.72,117A76.48,76.48,0,1,0,186.33,224.9l.07-.07a38.27,38.27,0,0,1-2.74-51.14,38.57,38.57,0,0,1,5.67-5.68,76.56,76.56,0,0,1,123,29.62A76.34,76.34,0,0,0,294.72,117Z" style="fill:#3c3c3b;stroke:#5fa78e;stroke-miterlimit:10;stroke-width:5.093946313947001px"/><path d="M408.4,171.06h-32l-8.33,18.56H355.9l37-81.21,35.69,81.21H416.24Zm-4.6-10.84-11.09-26-11.62,26Z" style="fill:#3c3c3b"/><path d="M468.23,149.63l-9,4.9q-2.13-4.45-5.28-4.45a3.59,3.59,0,0,0-2.57,1,3.43,3.43,0,0,0-1.07,2.6q0,2.77,6.3,5.49,8.67,3.81,11.67,7a12.19,12.19,0,0,1,3,8.66,15.33,15.33,0,0,1-5,11.68A16.93,16.93,0,0,1,454.42,191q-11.87,0-16.8-11.83l9.3-4.4a20.66,20.66,0,0,0,3,4.4,6.66,6.66,0,0,0,4.75,1.88q5.52,0,5.52-5.15,0-3-4.26-5.54-1.65-.84-3.29-1.63l-3.34-1.63a20.45,20.45,0,0,1-6.68-4.75,11.87,11.87,0,0,1-2.47-7.77,13.9,13.9,0,0,1,4.21-10.39,14.61,14.61,0,0,1,10.46-4.11Q463.82,140.08,468.23,149.63Z" style="fill:#3c3c3b"/><path d="M513.43,149.63l-9,4.9q-2.13-4.45-5.28-4.45a3.59,3.59,0,0,0-2.57,1,3.43,3.43,0,0,0-1.07,2.6q0,2.77,6.3,5.49,8.67,3.81,11.67,7a12.19,12.19,0,0,1,3,8.66,15.33,15.33,0,0,1-5,11.68A16.93,16.93,0,0,1,499.63,191q-11.87,0-16.8-11.83l9.3-4.4a20.66,20.66,0,0,0,3,4.4,6.66,6.66,0,0,0,4.75,1.88q5.52,0,5.52-5.15,0-3-4.26-5.54-1.65-.84-3.29-1.63l-3.34-1.63a20.45,20.45,0,0,1-6.68-4.75,11.87,11.87,0,0,1-2.47-7.77,13.9,13.9,0,0,1,4.21-10.39A14.61,14.61,0,0,1,500,140.08Q509,140.08,513.43,149.63Z" style="fill:#3c3c3b"/><path d="M529,165.17A25.23,25.23,0,0,1,572,147.45,25.44,25.44,0,0,1,553.94,191a23.71,23.71,0,0,1-17.77-7.42Q529,176.25,529,165.17Zm11.14.2q0,7.23,3.78,11.43a14.45,14.45,0,0,0,20.44,0q3.83-4.21,3.83-11.23t-3.83-11.23a14.28,14.28,0,0,0-20.34,0A15.69,15.69,0,0,0,540.13,165.37Z" style="fill:#3c3c3b"/><path d="M632.51,143.49v14.8a26.81,26.81,0,0,0-6.68-6.38,12.8,12.8,0,0,0-6.83-1.78,13.32,13.32,0,0,0-10.22,4.4,15.64,15.64,0,0,0-4.07,11,16,16,0,0,0,3.92,11.13,13.09,13.09,0,0,0,10.12,4.35,13.61,13.61,0,0,0,6.93-1.73q2.91-1.68,6.83-6.53v14.7A28.14,28.14,0,0,1,619.24,191a25.09,25.09,0,0,1-18.31-7.23,24.37,24.37,0,0,1-7.36-18.06,25.41,25.41,0,0,1,25.76-25.63A26.89,26.89,0,0,1,632.51,143.49Z" style="fill:#3c3c3b"/><path d="M646.38,121.37a7,7,0,0,1,2.08-5,7,7,0,0,1,10,0,6.92,6.92,0,0,1,2.08,5.1,7.09,7.09,0,0,1-2.08,5.15,6.63,6.63,0,0,1-5,2.13,6.79,6.79,0,0,1-5-2.13A7.15,7.15,0,0,1,646.38,121.37Zm12.54,20v48.2H648v-48.2Z" style="fill:#3c3c3b"/><path d="M712.45,141.42H723.4v48.2H712.45v-5Q705.72,191,698,191a20.66,20.66,0,0,1-16.18-7.23q-6.34-7.37-6.34-18.41,0-10.84,6.34-18.06a20.26,20.26,0,0,1,15.88-7.23q8.23,0,14.77,6.93Zm-25.86,24q0,6.93,3.63,11.28a11.79,11.79,0,0,0,9.4,4.4,12.38,12.38,0,0,0,9.78-4.26,18.64,18.64,0,0,0,0-22.37,12.21,12.21,0,0,0-9.69-4.31,11.94,11.94,0,0,0-9.4,4.35A16.27,16.27,0,0,0,686.59,165.37Z" style="fill:#3c3c3b"/><path d="M753.35,151.81v37.81h-10.9V151.81H737.8V141.42h4.65V123.75h10.9v17.67h8.48v10.39Z" style="fill:#3c3c3b"/><path d="M772.54,121.37a7,7,0,0,1,2.08-5,7,7,0,0,1,10,0,6.93,6.93,0,0,1,2.08,5.1,7.09,7.09,0,0,1-2.08,5.15,6.64,6.64,0,0,1-5,2.13,6.79,6.79,0,0,1-5-2.13A7.15,7.15,0,0,1,772.54,121.37Zm12.54,20v48.2h-10.9v-48.2Z" style="fill:#3c3c3b"/><path d="M801.62,165.17a25.23,25.23,0,0,1,43.05-17.72A25.44,25.44,0,0,1,826.56,191a23.71,23.71,0,0,1-17.77-7.42Q801.62,176.25,801.62,165.17Zm11.14.2q0,7.23,3.78,11.43a14.45,14.45,0,0,0,20.44,0q3.83-4.21,3.83-11.23T837,154.38a14.28,14.28,0,0,0-20.34,0A15.69,15.69,0,0,0,812.76,165.37Z" style="fill:#3c3c3b"/><path d="M868.42,141.42h10.95v4.45q5.71-5.79,12.88-5.79,8.23,0,12.83,5.3,4,4.5,4,14.7v29.54H898.11V162.69q0-7.13-1.94-9.85t-6.88-2.77q-5.42,0-7.7,3.66t-2.23,12.62v23.26H868.42Z" style="fill:#3c3c3b"/><path d="M961.11,165.17a25.23,25.23,0,0,1,43.05-17.72A25.44,25.44,0,0,1,986,191a23.71,23.71,0,0,1-17.77-7.42Q961.11,176.25,961.11,165.17Zm11.14.2q0,7.23,3.78,11.43a14.45,14.45,0,0,0,20.44,0q3.83-4.21,3.83-11.23t-3.83-11.23a14.28,14.28,0,0,0-20.34,0A15.69,15.69,0,0,0,972.25,165.37Z" style="fill:#3c3c3b"/><path d="M1039.2,151.81v37.81h-10.95V151.81h-3.87V141.42h3.87V122.81q0-9.1,3.1-12.87,4.26-5.24,12.4-5.25a20.94,20.94,0,0,1,7.31,1.73v11.38l-1.11-.59a13.48,13.48,0,0,0-5.81-1.83q-2.91,0-3.92,2.13t-1,8v15.89h11.87v10.39Z" style="fill:#3c3c3b"/><path d="M1142.24,124.59l-9.15,5.54q-2.57-4.55-4.89-5.94a11.22,11.22,0,0,0-6.25-1.58,11.39,11.39,0,0,0-7.8,2.72,8.51,8.51,0,0,0-3.1,6.73q0,5.59,8.14,9l7.46,3.12q9.1,3.76,13.32,9.18a21,21,0,0,1,4.21,13.29q0,10.54-6.88,17.42a23.34,23.34,0,0,1-17.19,6.93q-9.73,0-16.08-5.89t-7.8-16.58l11.43-2.57q.77,6.73,2.71,9.3,3.49,4.95,10.17,4.95a11.68,11.68,0,0,0,8.77-3.61,12.65,12.65,0,0,0,3.49-9.16,13.11,13.11,0,0,0-.61-4.08,10.43,10.43,0,0,0-1.89-3.41A15.2,15.2,0,0,0,1127,157a31.76,31.76,0,0,0-4.84-2.6l-7.22-3.07q-15.35-6.63-15.35-19.4a18.57,18.57,0,0,1,6.44-14.4,23,23,0,0,1,16-5.84Q1135,111.72,1142.24,124.59Z" style="fill:#3c3c3b"/><path d="M1158.44,165.17a25.23,25.23,0,0,1,43.05-17.72A25.44,25.44,0,0,1,1183.38,191a23.71,23.71,0,0,1-17.77-7.42Q1158.44,176.25,1158.44,165.17Zm11.14.2q0,7.23,3.78,11.43a14.45,14.45,0,0,0,20.44,0q3.83-4.21,3.83-11.23t-3.83-11.23a14.28,14.28,0,0,0-20.34,0A15.69,15.69,0,0,0,1169.58,165.37Z" style="fill:#3c3c3b"/><path d="M1262,143.49v14.8a26.81,26.81,0,0,0-6.68-6.38,12.81,12.81,0,0,0-6.83-1.78,13.32,13.32,0,0,0-10.22,4.4,15.64,15.64,0,0,0-4.07,11,16,16,0,0,0,3.92,11.13,13.09,13.09,0,0,0,10.12,4.35,13.61,13.61,0,0,0,6.93-1.73q2.91-1.68,6.83-6.53v14.7a28.14,28.14,0,0,1-13.27,3.51,25.09,25.09,0,0,1-18.31-7.23,24.37,24.37,0,0,1-7.36-18.06,24.7,24.7,0,0,1,7.46-18.21,25,25,0,0,1,18.31-7.42A26.89,26.89,0,0,1,1262,143.49Z" style="fill:#3c3c3b"/><path d="M1275.82,121.37a7,7,0,0,1,2.08-5,7,7,0,0,1,10,0,6.93,6.93,0,0,1,2.08,5.1,7.09,7.09,0,0,1-2.08,5.15,6.64,6.64,0,0,1-5,2.13,6.79,6.79,0,0,1-5-2.13A7.15,7.15,0,0,1,1275.82,121.37Zm12.54,20v48.2h-10.9v-48.2Z" style="fill:#3c3c3b"/><path d="M1341.9,141.42h10.94v48.2H1341.9v-5q-6.73,6.43-14.48,6.43a20.66,20.66,0,0,1-16.18-7.23q-6.34-7.37-6.34-18.41,0-10.84,6.34-18.06a20.26,20.26,0,0,1,15.88-7.23q8.23,0,14.77,6.93Zm-25.86,24q0,6.93,3.63,11.28a11.79,11.79,0,0,0,9.4,4.4,12.38,12.38,0,0,0,9.78-4.26,18.63,18.63,0,0,0,0-22.37,12.21,12.21,0,0,0-9.69-4.31,11.94,11.94,0,0,0-9.4,4.35A16.27,16.27,0,0,0,1316,165.37Z" style="fill:#3c3c3b"/><path d="M1382.45,106v83.58h-10.9V106Z" style="fill:#3c3c3b"/><path d="M408.4,264.19h-32l-8.33,18.56H355.9l37-81.21,35.69,81.21H416.24Zm-4.6-10.84-11.09-26-11.62,26Z" style="fill:#3c3c3b"/><path d="M440.81,234.55h10.94V239q5.71-5.79,12.88-5.79,8.23,0,12.83,5.3,4,4.5,4,14.7v29.54H470.5V255.83q0-7.13-1.94-9.85t-6.88-2.77q-5.42,0-7.7,3.66t-2.23,12.62v23.26H440.81Z" style="fill:#3c3c3b"/><path d="M511.4,244.94v37.81H500.5V244.94h-4.65V234.55h4.65V216.88h10.9v17.67h8.48v10.39Z" style="fill:#3c3c3b"/><path d="M534.22,199.17h10.9v39.39A18.55,18.55,0,0,1,558,233.21q8,0,12.79,5.3,4.07,4.6,4.07,14.7v29.54h-10.9v-28.5q0-5.79-2-8.39t-6.47-2.6q-5.72,0-8,3.61t-2.28,12.57v23.31h-10.9Z" style="fill:#3c3c3b"/><path d="M593.57,234.55h10.9v4.31a20.9,20.9,0,0,1,5.33-4.4,12,12,0,0,1,5.62-1.24,17.34,17.34,0,0,1,9,2.87l-5,10.19a10.27,10.27,0,0,0-6.05-2.28q-8.91,0-8.91,13.76v25h-10.9Z" style="fill:#3c3c3b"/><path d="M632.53,258.3a25.23,25.23,0,0,1,43.05-17.72,25.44,25.44,0,0,1-18.11,43.55,23.71,23.71,0,0,1-17.77-7.42Q632.53,269.39,632.53,258.3Zm11.14.2q0,7.23,3.78,11.43a14.46,14.46,0,0,0,20.44,0q3.83-4.21,3.83-11.23t-3.83-11.23a14.28,14.28,0,0,0-20.34,0A15.69,15.69,0,0,0,643.67,258.5Z" style="fill:#3c3c3b"/><path d="M710.23,309h-10.9V234.55h10.9v5.25q6.44-6.58,14.63-6.58a20.21,20.21,0,0,1,16,7.32q6.39,7.27,6.39,18.36,0,10.84-6.34,18.06A20.23,20.23,0,0,1,725,284.13q-8.28,0-14.82-6.78Zm25.91-50q0-6.93-3.68-11.28a11.79,11.79,0,0,0-9.39-4.4,12.33,12.33,0,0,0-9.73,4.26q-3.73,4.26-3.73,11.18a16.7,16.7,0,0,0,3.73,11.18,12.12,12.12,0,0,0,9.69,4.3,11.71,11.71,0,0,0,9.35-4.35A16,16,0,0,0,736.13,258.95Z" style="fill:#3c3c3b"/><path d="M761.53,258.3a25.23,25.23,0,0,1,43.05-17.72,25.44,25.44,0,0,1-18.11,43.55,23.71,23.71,0,0,1-17.77-7.42Q761.53,269.39,761.53,258.3Zm11.14.2q0,7.23,3.78,11.43a14.46,14.46,0,0,0,20.44,0q3.83-4.21,3.83-11.23t-3.83-11.23a14.28,14.28,0,0,0-20.34,0A15.69,15.69,0,0,0,772.67,258.5Z" style="fill:#3c3c3b"/><path d="M839.23,199.17v83.58h-10.9V199.17Z" style="fill:#3c3c3b"/><path d="M855.76,258.3a25.23,25.23,0,0,1,43.05-17.72,25.44,25.44,0,0,1-18.11,43.55,23.71,23.71,0,0,1-17.77-7.42Q855.76,269.39,855.76,258.3Zm11.14.2q0,7.23,3.78,11.43a14.46,14.46,0,0,0,20.44,0q3.83-4.21,3.83-11.23t-3.83-11.23a14.28,14.28,0,0,0-20.34,0A15.69,15.69,0,0,0,866.9,258.5Z" style="fill:#3c3c3b"/><path d="M968.19,281.61q0,3.41-.22,6a42.84,42.84,0,0,1-.61,4.58,20.56,20.56,0,0,1-4.55,9.35q-6.39,7.52-17.58,7.52-9.44,0-15.55-5.2-6.3-5.35-7.26-14.8h10.95a12.81,12.81,0,0,0,2.08,5.49q3.39,4.5,9.88,4.5,12,0,12-15v-6.73q-6.49,6.78-15,6.78A19.91,19.91,0,0,1,926.54,277q-6.2-7.22-6.2-18.06,0-10.54,5.76-17.91a19.87,19.87,0,0,1,16.37-7.82A18.84,18.84,0,0,1,957.29,240v-5.44h10.9Zm-10.46-22.86q0-7-3.68-11.23a12.06,12.06,0,0,0-9.54-4.31,11.64,11.64,0,0,0-9.78,4.7q-3.24,4.21-3.24,10.89a17.15,17.15,0,0,0,3.24,10.79,11.65,11.65,0,0,0,9.78,4.6,11.86,11.86,0,0,0,9.88-4.65A16.81,16.81,0,0,0,957.73,258.75Z" style="fill:#3c3c3b"/><path d="M985.25,214.51a7,7,0,0,1,2.08-5,7,7,0,0,1,10,0,6.93,6.93,0,0,1,2.08,5.1,7.09,7.09,0,0,1-2.08,5.15,6.64,6.64,0,0,1-5,2.13,6.79,6.79,0,0,1-5-2.13A7.15,7.15,0,0,1,985.25,214.51Zm12.54,20v48.2H986.9v-48.2Z" style="fill:#3c3c3b"/><path d="M1044,242.76l-9,4.9q-2.13-4.45-5.28-4.45a3.59,3.59,0,0,0-2.57,1,3.43,3.43,0,0,0-1.07,2.6q0,2.77,6.3,5.49,8.67,3.81,11.67,7a12.18,12.18,0,0,1,3,8.66,15.32,15.32,0,0,1-5,11.68,16.93,16.93,0,0,1-11.82,4.45q-11.87,0-16.8-11.83l9.3-4.4a20.6,20.6,0,0,0,3,4.4,6.66,6.66,0,0,0,4.75,1.88q5.52,0,5.52-5.15,0-3-4.26-5.54-1.65-.84-3.29-1.63l-3.34-1.63a20.45,20.45,0,0,1-6.68-4.75,11.87,11.87,0,0,1-2.47-7.77,13.9,13.9,0,0,1,4.21-10.39,14.61,14.61,0,0,1,10.46-4.11Q1039.56,233.21,1044,242.76Z" style="fill:#3c3c3b"/><path d="M1073,244.94v37.81h-10.9V244.94h-4.65V234.55h4.65V216.88H1073v17.67h8.48v10.39Z" style="fill:#3c3c3b"/><path d="M1121.25,242.76l-9,4.9q-2.13-4.45-5.28-4.45a3.59,3.59,0,0,0-2.57,1,3.43,3.43,0,0,0-1.07,2.6q0,2.77,6.3,5.49,8.67,3.81,11.67,7a12.18,12.18,0,0,1,3,8.66,15.32,15.32,0,0,1-5,11.68,16.93,16.93,0,0,1-11.82,4.45q-11.87,0-16.8-11.83l9.3-4.4a20.6,20.6,0,0,0,3,4.4,6.66,6.66,0,0,0,4.75,1.88q5.52,0,5.52-5.15,0-3-4.26-5.54-1.65-.84-3.29-1.63l-3.34-1.63a20.45,20.45,0,0,1-6.68-4.75,11.87,11.87,0,0,1-2.47-7.77,13.9,13.9,0,0,1,4.21-10.39,14.61,14.61,0,0,1,10.46-4.11Q1116.84,233.21,1121.25,242.76Z" style="fill:#3c3c3b"/><path d="M361.24,384.37a16.06,16.06,0,0,1,27.4-11.27,16.19,16.19,0,0,1-11.53,27.71,15.09,15.09,0,0,1-11.31-4.72A16.07,16.07,0,0,1,361.24,384.37Zm7.09.13a10.49,10.49,0,0,0,2.4,7.27,9.2,9.2,0,0,0,13,0,11.71,11.71,0,0,0,0-14.3,9.09,9.09,0,0,0-12.94,0A10,10,0,0,0,368.33,384.5Z" style="fill:#3c3c3b"/><path d="M410.93,375.87v24.06h-7V375.87H401.5v-6.61H404V357.42q0-5.79,2-8.19,2.71-3.34,7.89-3.34a13.33,13.33,0,0,1,4.65,1.1v7.24l-.71-.38a8.58,8.58,0,0,0-3.7-1.17,2.5,2.5,0,0,0-2.5,1.35,13.3,13.3,0,0,0-.65,5.1v10.11h7.55v6.61Z" style="fill:#3c3c3b"/><path d="M455.43,375.87v24.06h-6.93V375.87h-3v-6.61h3V358h6.93v11.24h5.39v6.61Z" style="fill:#3c3c3b"/><path d="M470,346.74h6.93v25.07a11.81,11.81,0,0,1,8.17-3.4,10.44,10.44,0,0,1,8.14,3.37q2.59,2.93,2.59,9.35v18.8h-6.93V381.79q0-3.68-1.28-5.34a4.88,4.88,0,0,0-4.11-1.65q-3.64,0-5.12,2.3t-1.45,8v14.83H470Z" style="fill:#3c3c3b"/><path d="M535.06,386.26H513.54a9.42,9.42,0,0,0,2.4,6,7.25,7.25,0,0,0,5.45,2.2,7,7,0,0,0,4.28-1.26,17.81,17.81,0,0,0,3.79-4.66l5.86,3.34a23.84,23.84,0,0,1-2.87,4,15.31,15.31,0,0,1-3.24,2.77,12.83,12.83,0,0,1-3.73,1.59,17.79,17.79,0,0,1-4.35.5,14,14,0,0,1-10.79-4.41q-4.07-4.44-4.07-11.78t3.94-11.78a13.46,13.46,0,0,1,10.54-4.44q6.63,0,10.48,4.31t3.82,11.87Zm-7.12-5.79q-1.45-5.67-7-5.67a7.06,7.06,0,0,0-2.37.39,6.76,6.76,0,0,0-2,1.13A7.15,7.15,0,0,0,515,378.1a8.36,8.36,0,0,0-1,2.36Z" style="fill:#3c3c3b"/><path d="M576.93,351.31v29.29q0,6.27,2,9.16a10.58,10.58,0,0,0,16.86,0q2-2.8,2-9.16V351.31H605v31.3a17.73,17.73,0,0,1-4.68,12.66,17.85,17.85,0,0,1-25.86,0,17.73,17.73,0,0,1-4.68-12.66v-31.3Z" style="fill:#3c3c3b"/><path d="M626.72,370.7l18.52-19.4h9.58l-21.51,22,21.63,26.61h-9.62l-17.14-21.63-1.48,1.51v20.12h-7.18V351.31h7.18Z" style="fill:#3c3c3b"/><path d="M705.85,372.88l8.57,10.58.28-.32q1.39-1.54,2.62-3t2.37-3l4.68,4.91q-.86,1.26-2.27,2.93t-3.34,3.84l8.81,11.12h-8.94l-4.75-6q-6.53,6.9-13.59,6.9a15.11,15.11,0,0,1-10.72-4.12,13.69,13.69,0,0,1-4.31-10.27q0-7.27,6.84-12.09l3.11-2.17.22-.16.43-.35q-4.71-5.13-4.71-10.11a10.72,10.72,0,0,1,3.14-8,12.54,12.54,0,0,1,16.36-.09,10.35,10.35,0,0,1,1.45,13.26A30.3,30.3,0,0,1,705.85,372.88Zm-5.7,4.13-.4.28a34.73,34.73,0,0,0-6,5,6.16,6.16,0,0,0-1.57,4,7.92,7.92,0,0,0,2.37,5.54,7.6,7.6,0,0,0,5.42,2.42q4.16,0,9.58-5.57Zm1.54-9.29.59-.44q1.51-1.16,2.5-2a9.63,9.63,0,0,0,1.42-1.46,4.46,4.46,0,0,0,.92-2.87,4.1,4.1,0,0,0-1.26-3.12,4.73,4.73,0,0,0-3.39-1.2,4.63,4.63,0,0,0-3.27,1.23,3.8,3.8,0,0,0-1.33,3,6.72,6.72,0,0,0,1.66,4.22l1.79,2.21A3.49,3.49,0,0,0,701.69,367.71Z" style="fill:#3c3c3b"/><path d="M794.23,353.92v8.69q-6.23-5.32-12.88-5.32A16.24,16.24,0,0,0,769,362.67a18.37,18.37,0,0,0-5.05,13.1A17.92,17.92,0,0,0,769,388.69a16.52,16.52,0,0,0,12.39,5.26,14.92,14.92,0,0,0,6.44-1.26,18.46,18.46,0,0,0,3.07-1.7,36.35,36.35,0,0,0,3.34-2.58v8.85a25.5,25.5,0,0,1-12.94,3.56,23.62,23.62,0,0,1-17.41-7.27,24.39,24.39,0,0,1-7.18-17.7,25.3,25.3,0,0,1,6-16.56,24.37,24.37,0,0,1,31.53-5.35Z" style="fill:#3c3c3b"/><path d="M803.71,384.37a16.06,16.06,0,0,1,27.4-11.27,16.19,16.19,0,0,1-11.53,27.71,15.09,15.09,0,0,1-11.31-4.72A16.07,16.07,0,0,1,803.71,384.37Zm7.09.13a10.49,10.49,0,0,0,2.4,7.27,9.2,9.2,0,0,0,13,0,11.71,11.71,0,0,0,0-14.3,9.09,9.09,0,0,0-12.94,0A10,10,0,0,0,810.79,384.5Z" style="fill:#3c3c3b"/><path d="M846.22,369.26h6.93v2.83a14.54,14.54,0,0,1,3.42-2.9,8.15,8.15,0,0,1,3.79-.79,9.16,9.16,0,0,1,8,4.53,10.34,10.34,0,0,1,8.84-4.53q10.14,0,10.14,12.56v19h-7v-17q0-4.41-1-6.23a3.78,3.78,0,0,0-3.54-1.86,4.5,4.5,0,0,0-4.18,2.2q-1.31,2.2-1.31,7.09v15.84h-7V383q0-8.19-4.62-8.19a4.6,4.6,0,0,0-4.27,2.24q-1.34,2.24-1.34,7.05v15.84h-6.93Z" style="fill:#3c3c3b"/><path d="M899.3,369.26h6.93v2.83a14.54,14.54,0,0,1,3.42-2.9,8.15,8.15,0,0,1,3.79-.79,9.16,9.16,0,0,1,8,4.53,10.34,10.34,0,0,1,8.84-4.53q10.14,0,10.14,12.56v19h-7v-17q0-4.41-1-6.23a3.78,3.78,0,0,0-3.54-1.86,4.5,4.5,0,0,0-4.18,2.2q-1.31,2.2-1.31,7.09v15.84h-7V383q0-8.19-4.62-8.19a4.6,4.6,0,0,0-4.27,2.24q-1.34,2.24-1.34,7.05v15.84H899.3Z" style="fill:#3c3c3b"/><path d="M951,384.37a16.06,16.06,0,0,1,27.4-11.27,16.19,16.19,0,0,1-11.53,27.71,15.09,15.09,0,0,1-11.31-4.72A16.07,16.07,0,0,1,951,384.37Zm7.09.13a10.49,10.49,0,0,0,2.4,7.27,9.2,9.2,0,0,0,13,0,11.71,11.71,0,0,0,0-14.3,9.09,9.09,0,0,0-12.94,0A10,10,0,0,0,958.05,384.5Z" style="fill:#3c3c3b"/><path d="M993.47,369.26h7v2.83a11.26,11.26,0,0,1,8.2-3.68,10.25,10.25,0,0,1,8.17,3.37q2.53,2.87,2.53,9.35v18.8h-7V382.8q0-4.54-1.23-6.27t-4.38-1.76q-3.45,0-4.9,2.33t-1.42,8v14.8h-7Z" style="fill:#3c3c3b"/><path d="M1034.11,369.26l7.86,17.51,8.47-20.31,8.54,20.31,7.77-17.51h7.77l-15.72,33-8.35-19.75L1042,402.23l-15.69-33Z" style="fill:#3c3c3b"/><path d="M1108.73,386.26h-21.51a9.42,9.42,0,0,0,2.4,6,7.25,7.25,0,0,0,5.46,2.2,7,7,0,0,0,4.28-1.26,17.8,17.8,0,0,0,3.79-4.66l5.86,3.34a23.81,23.81,0,0,1-2.87,4,15.31,15.31,0,0,1-3.24,2.77,12.83,12.83,0,0,1-3.73,1.59,17.78,17.78,0,0,1-4.34.5A14,14,0,0,1,1084,396.4Q1080,392,1080,384.62t3.94-11.78a13.46,13.46,0,0,1,10.54-4.44q6.63,0,10.48,4.31t3.82,11.87Zm-7.12-5.79q-1.45-5.67-7-5.67a7.06,7.06,0,0,0-2.37.39,6.74,6.74,0,0,0-2,1.13,7.14,7.14,0,0,0-1.56,1.78,8.35,8.35,0,0,0-1,2.36Z" style="fill:#3c3c3b"/><path d="M1141.59,369.26h7v30.67h-7v-3.21a13.12,13.12,0,0,1-19.51-.5,17.32,17.32,0,0,1-4-11.71,16.78,16.78,0,0,1,4-11.49,12.89,12.89,0,0,1,10.11-4.6,12.65,12.65,0,0,1,9.4,4.41Zm-16.46,15.24a10.83,10.83,0,0,0,2.31,7.18,7.5,7.5,0,0,0,6,2.8,7.88,7.88,0,0,0,6.23-2.71,11.86,11.86,0,0,0,0-14.23,7.77,7.77,0,0,0-6.16-2.74,7.6,7.6,0,0,0-6,2.77A10.35,10.35,0,0,0,1125.14,384.5Z" style="fill:#3c3c3b"/><path d="M1167.4,346.74v53.19h-6.93V346.74Z" style="fill:#3c3c3b"/><path d="M1186.49,375.87v24.06h-6.93V375.87h-3v-6.61h3V358h6.93v11.24h5.39v6.61Z" style="fill:#3c3c3b"/><path d="M1201,346.74H1208v25.07a11.8,11.8,0,0,1,8.17-3.4,10.44,10.44,0,0,1,8.14,3.37q2.59,2.93,2.59,9.35v18.8h-6.93V381.79q0-3.68-1.28-5.34a4.88,4.88,0,0,0-4.11-1.65q-3.64,0-5.12,2.3t-1.45,8v14.83H1201Z" style="fill:#3c3c3b"/><line x1="349.98" y1="324.1" x2="1380.78" y2="322.49" style="fill:#3c3c3b;stroke:#1d1d1b;stroke-miterlimit:10;stroke-width:3.451927545704499px"/></svg>